<?xml version="1.0" encoding="UTF-8"?>
<svg id="Layer_1" data-name="Layer 1" xmlns="http://www.w3.org/2000/svg" viewBox="0 0 512 512">
  <defs>
    <style>
      .cls-1 {
        fill: #fff;
        stroke-width: 0px;
      }
    </style>
  </defs>
  <g id="Layer_2" data-name="Layer 2">
    <path class="cls-1" d="m480,240c-8.84,0-16,7.16-16,16,.06,114.88-93.01,208.05-207.89,208.11-114.88.06-208.05-93.01-208.11-207.89-.06-114.88,93.01-208.05,207.89-208.11,43.69-.02,86.27,13.71,121.71,39.25l-27.04,3.52c-8.84.53-15.57,8.12-15.04,16.96.53,8.84,8.12,15.57,16.96,15.04h2.08l60-7.52c4.64.47,9.26-1.11,12.64-4.32,2.24-2.03,3.9-4.63,4.8-7.52v-1.6c.08-1.28.08-2.56,0-3.84v-1.44l-8-64c-1.16-8.67-9.07-14.8-17.76-13.76-8.74,1.08-14.96,9.02-13.92,17.76l2.88,23.52c-40.59-29.01-89.31-44.46-139.2-44.16C123.45,16,16,123.45,16,256s107.45,240,240,240,240-107.45,240-240c0-8.84-7.16-16-16-16Z"/>
    <path class="cls-1" d="m256,128c-70.69,0-128,57.31-128,128s57.31,128,128,128,128-57.31,128-128-57.31-128-128-128Zm0,224c-53.02,0-96-42.98-96-96s42.98-96,96-96,96,42.98,96,96-42.98,96-96,96Z"/>
    <path class="cls-1" d="m288,240h-16v-32c0-8.84-7.16-16-16-16s-16,7.16-16,16v48c0,8.84,7.16,16,16,16h32c8.84,0,16-7.16,16-16s-7.16-16-16-16Z"/>
  </g>
</svg>