<?xml version="1.0" encoding="UTF-8"?>
<svg id="Capa_1"  data-name="Capa 1" xmlns="http://www.w3.org/2000/svg" viewBox="0 0 409.6 409.6">
  <defs>
    <style>
      .cls-1 {
        fill: #fff;
        stroke-width: 0px;
        
      }
    </style>
  </defs>
  <path class="cls-1" d="m328.02,255.62c45.35-2,81.58-39.1,81.58-84.95s-38.2-85.33-85.33-85.33-82.95,36.23-84.95,81.58l-38.45-38.45c9.04-34.08.6-71.81-26.13-98.57C143.23-1.59,96.33-8.17,58.27,9.98l68.2,68.2c13.3,13.33,13.33,34.95,0,48.29-13.33,13.32-34.97,13.32-48.3,0L10,58.27C-8.17,96.32-1.6,143.22,29.9,174.74c26.74,26.73,64.49,35.16,98.56,26.15l193.72,193.71c20,20,52.41,20,72.43,0,19.96-19.97,19.96-52.4-.02-72.4l-66.58-66.58Zm-49-112.1l18.1-18.11,27.15,27.16,27.15-27.16,18.1,18.12-27.15,27.15,27.15,27.15-18.1,18.12-27.15-27.17-27.15,27.17-18.1-18.12,27.15-27.15-27.15-27.15Zm91.45,226.93c-4.35,4.37-9.44,5.01-12.07,5.01s-7.73-.65-12.08-5l-184.88-184.88c4.6-3.28,9.16-6.72,13.3-10.85,4.13-4.13,7.57-8.67,10.83-13.3l184.9,184.89c6.65,6.65,6.65,17.49,0,24.13Z"/>
</svg>