<?xml version="1.0" encoding="UTF-8"?>
<svg id="Capa_1" data-name="Capa 1" xmlns="http://www.w3.org/2000/svg" viewBox="0 0 930.85 930.86">
  <defs>
    <style>
      .cls-1 {
        fill: #fff;
        stroke-width: 0px;
      }
    </style>
  </defs>
  <path class="cls-1" d="m683.95,50.28c-94.2,0-176.2,52.3-218.5,129.4-42.4-77.1-124.3-129.4-218.5-129.4S74.85,103.08,31.65,181.28c-51.4,92.9-33.8,195.3,7.3,288.5.1.2.2.4.3.6h204.1l46.8-84.3c9.5-17.1,34.2-17.2,43.7-.1l85.9,153.6,132.9-279.7c9.5-20.1,38.6-18.7,46.1,2.2l75.6,208.2h217.2c.1-.2.2-.4.3-.6,41.2-93.2,58.7-195.6,7.4-288.5-43.2-78.1-125.2-130.9-215.3-130.9Z"/>
  <path class="cls-1" d="m615.45,529.28l-46.4-128-123,258.9c-8.7,18.4-34.5,19.2-44.5,1.5l-89.4-159.9-17.3,31.1c-4.4,7.9-12.8,12.9-21.9,12.9H84.35c103.4,141.7,304.1,287.6,363.9,329.4,10.3,7.2,24.1,7.2,34.4,0,59.8-41.9,260.5-187.8,363.9-329.4h-207.5c-10.6,0-20-6.6-23.6-16.5Z"/>
</svg>