<?xml version="1.0" encoding="UTF-8"?>
<svg id="Capa_1" data-name="Capa 1" xmlns="http://www.w3.org/2000/svg" viewBox="0 0 512 512">
  <defs>
    <style>
      .cls-1 {
        fill: #fff;
        stroke-width: 0px;
      }
    </style>
  </defs>
  <path class="cls-1" d="m490.47,134.54L279.47,6.7c-14.47-8.85-32.46-8.85-46.93,0L21.53,134.54C8.06,142.77,0,157.13,0,172.92c-.01,15.81,8.04,30.18,21.53,38.42l211.02,129.84c14.5,8.84,32.42,8.84,46.92,0l211-129.84c13.49-8.25,21.55-22.62,21.53-38.42,0-15.79-8.06-30.15-21.53-38.38Z"/>
  <path class="cls-1" d="m504.21,238.1l-209.1,128.68c-24.3,14.82-54.49,14.48-78.18.03L7.79,238.11c-4.85,7.25-7.79,5.71-7.79,14.81-.01,15.81,8.04,30.18,21.53,38.42l211.02,129.84c14.5,8.84,32.42,8.84,46.92,0l211-129.84c13.49-8.25,21.55-12.62,21.53-28.42,0-9.11-2.94-17.57-7.79-24.82Z"/>
  <path class="cls-1" d="m504.21,318.1l-209.1,128.68c-24.07,14.69-54.09,14.7-78.18.03L7.79,318.1c-4.86,7.25-7.79,9.83-7.79,18.95-.01,15.81,8.04,30.18,21.53,38.42l211.02,129.84c14.5,8.84,32.42,8.84,46.92,0l211-129.84c13.49-8.25,21.55-22.62,21.53-38.42,0-9.11-2.94-11.69-7.79-18.95Z"/>
</svg>