<?xml version="1.0" encoding="UTF-8"?>
<svg id="Capa_1" data-name="Capa 1" xmlns="http://www.w3.org/2000/svg" viewBox="0 0 512 512">
  <defs>
    <style>
      .cls-1 {
        fill: #fff;
        stroke-width: 0px;
      }
    </style>
  </defs>
  <path class="cls-1" d="m86.99,90.28l-49.25-40.88c-12.33,39.68-10.83,82.38,4.25,121.1l43.61,111.98h84.56L86.99,90.28Z"/>
  <path class="cls-1" d="m289.47,221.14h-48.19v-31.38h48.19v-93.78h-48.19v-31.46h48.19v-30.12h-78.31v91.7h48.19v33.54h-48.19v91.62h48.19v31.22h30.12v-61.34Z"/>
  <path class="cls-1" d="m469.03,176.16c-17.47-3.38-28.89-20.28-25.51-37.74,1.23-6.37,4.26-11.93,8.45-16.26l-11.15-2.16c-22.39-4.33-44.05,10.32-48.38,32.7l-25.92,129.77h82.19l20.32-106.31Z"/>
  <path class="cls-1" d="m365.38,446.43h30.12v31.18h-30.12v-31.18Z"/>
  <path class="cls-1" d="m433.05,446.43v31.18h30.12v-31.26c-1.01.04-2.01.08-3.03.08h-27.09Z"/>
  <path class="cls-1" d="m0,388.14c0,39.57,30.59,72.11,69.35,75.27v-150.54C30.59,316.03,0,348.57,0,388.14Z"/>
  <path class="cls-1" d="m460.14,312.59H99.47v60.57h185.88v30.12H99.47v60.39h189.55l45.11-47.37h126.01c28.59,0,51.86-23.26,51.86-51.86s-23.26-51.86-51.86-51.86h0Z"/>
</svg>