<?xml version="1.0" encoding="UTF-8"?>
<svg id="Capa_1" data-name="Capa 1" xmlns="http://www.w3.org/2000/svg" viewBox="0 0 512 512">
  <defs>
    <style>
      .cls-1 {
        fill: #fff;
        stroke-width: 0px;
      }
    </style>
  </defs>
  <path class="cls-1" d="m360.61,252.56c-1.2-5.07-4.92-9.14-9.86-10.78l-73.59-24.54,52.27-104.53c3.28-6.58,1.32-14.57-4.64-18.88-5.99-4.29-14.19-3.65-19.38,1.57l-150,150c-3.68,3.68-5.19,8.99-4,14.05,1.2,5.07,4.92,9.14,9.86,10.78l73.59,24.54-52.27,104.53c-3.28,6.58-1.32,14.58,4.64,18.88,5.97,4.28,14.16,3.65,19.38-1.57l150-150c3.68-3.68,5.19-8.99,4-14.05Z"/>
  <path class="cls-1" d="m256,0C179.87,0,107.96,35.41,60,92.53v-16.53c0-8.29-6.71-15-15-15s-15,6.71-15,15v63.72c0,14.32,18.49,16.36,15,15,.31,0,.62-.01.92-.03l60-3.72c8.28-.51,14.56-7.63,14.05-15.89-.51-8.26-7.73-14.49-15.89-14.05l-30.39,1.89c42.1-57.27,110.22-92.92,182.32-92.92,124.07,0,226,101.93,226,226,0,8.29,6.71,15,15,15s15-6.71,15-15C512,115.39,396.61,0,256,0Z"/>
  <path class="cls-1" d="m466.08,357.31l-60,3.72c-8.28.51-14.56,7.63-14.05,15.89s7.9,14.56,15.89,14.05l30.39-1.89c-42.1,57.27-110.22,92.92-182.32,92.92-124.07,0-226-101.93-226-226,0-8.29-6.71-15-15-15s-15,6.71-15,15c0,140.61,115.39,256,256,256,76.13,0,148.04-35.41,196-92.53v16.53c0,8.29,6.71,15,15,15s15-6.71,15-15v-63.72c0-8.24-7.9-15.42-15.92-14.97Z"/>
</svg>