<svg width="1440" height="431" viewBox="0 0 1440 431" fill="none" xmlns="http://www.w3.org/2000/svg">
<rect opacity="0.5" x="288" y="143" width="144" height="144" fill="#F6F3EB"/>
<rect opacity="0.5" x="1016" y="-1" width="144" height="144" fill="#F6F3EB"/>
<rect opacity="0.5" x="728" y="-1" width="144" height="144" fill="#F6F3EB"/>
<rect y="-1" width="144" height="144" fill="#FCFAF6"/>
<rect x="144" y="143" width="144" height="144" fill="#FCFAF6"/>
<rect x="1160" y="-1" width="144" height="144" fill="#FCFAF6"/>
<rect x="144" y="-1" width="144" height="144" fill="#F6F3EB"/>
<rect opacity="0.5" x="432" y="-1" width="144" height="144" fill="#F6F3EB"/>
<rect x="1304" y="-1" width="144" height="144" fill="#F6F3EB"/>
<rect y="143" width="144" height="144" fill="#F6F3EB"/>
<rect x="1160" y="143" width="144" height="144" fill="#F6F3EB"/>
<rect opacity="0.5" x="1016" y="287" width="144" height="144" fill="#F6F3EB"/>
<rect opacity="0.5" x="728" y="287" width="144" height="144" fill="#F6F3EB"/>
<rect opacity="0.25" x="872" y="143" width="144" height="144" fill="#F6F3EB"/>
<rect x="1304" y="143" width="144" height="144" fill="#FCFAF6"/>
<rect y="287" width="144" height="144" fill="#FCFAF6"/>
<rect x="1160" y="287" width="144" height="144" fill="#FCFAF6"/>
<rect x="144" y="287" width="144" height="144" fill="#F6F3EB"/>
<rect opacity="0.5" x="432" y="287" width="144" height="144" fill="#F6F3EB"/>
<rect x="1304" y="287" width="144" height="144" fill="#F6F3EB"/>
</svg>
